<svg xmlns="http://www.w3.org/2000/svg" viewBox="0 0 256 256" width="256" height="256" style="image-rendering: pixelated;">
<rect width="256" height="256" fill="none"/>
<rect x="88" y="0" width="8" height="8" fill="#C8B898"/><rect x="96" y="0" width="8" height="8" fill="#C8B898"/><rect x="104" y="0" width="8" height="8" fill="#E8E0D0"/><rect x="112" y="0" width="8" height="8" fill="#E8E0D0"/><rect x="120" y="0" width="8" height="8" fill="#E8E0D0"/><rect x="128" y="0" width="8" height="8" fill="#E8E0D0"/><rect x="136" y="0" width="8" height="8" fill="#E8E0D0"/><rect x="144" y="0" width="8" height="8" fill="#E8E0D0"/><rect x="152" y="0" width="8" height="8" fill="#C8B898"/><rect x="160" y="0" width="8" height="8" fill="#C8B898"/><rect x="72" y="8" width="8" height="8" fill="#C8B898"/><rect x="80" y="8" width="8" height="8" fill="#E8E0D0"/><rect x="88" y="8" width="8" height="8" fill="#E8E0D0"/><rect x="96" y="8" width="8" height="8" fill="#A89878"/><rect x="104" y="8" width="8" height="8" fill="#E8E0D0"/><rect x="112" y="8" width="8" height="8" fill="#C8B898"/><rect x="120" y="8" width="8" height="8" fill="#E8E0D0"/><rect x="128" y="8" width="8" height="8" fill="#E8E0D0"/><rect x="136" y="8" width="8" height="8" fill="#C8B898"/><rect x="144" y="8" width="8" height="8" fill="#E8E0D0"/><rect x="152" y="8" width="8" height="8" fill="#A89878"/><rect x="160" y="8" width="8" height="8" fill="#E8E0D0"/><rect x="168" y="8" width="8" height="8" fill="#E8E0D0"/><rect x="176" y="8" width="8" height="8" fill="#C8B898"/><rect x="64" y="16" width="8" height="8" fill="#C8B898"/><rect x="72" y="16" width="8" height="8" fill="#E8E0D0"/><rect x="80" y="16" width="8" height="8" fill="#A89878"/><rect x="88" y="16" width="8" height="8" fill="#E8E0D0"/><rect x="96" y="16" width="8" height="8" fill="#E8E0D0"/><rect x="104" y="16" width="8" height="8" fill="#C8B898"/><rect x="112" y="16" width="8" height="8" fill="#E8E0D0"/><rect x="120" y="16" width="8" height="8" fill="#A89878"/><rect x="128" y="16" width="8" height="8" fill="#A89878"/><rect x="136" y="16" width="8" height="8" fill="#E8E0D0"/><rect x="144" y="16" width="8" height="8" fill="#C8B898"/><rect x="152" y="16" width="8" height="8" fill="#E8E0D0"/><rect x="160" y="16" width="8" height="8" fill="#E8E0D0"/><rect x="168" y="16" width="8" height="8" fill="#A89878"/><rect x="176" y="16" width="8" height="8" fill="#E8E0D0"/><rect x="184" y="16" width="8" height="8" fill="#C8B898"/><rect x="56" y="24" width="8" height="8" fill="#C8B898"/><rect x="64" y="24" width="8" height="8" fill="#E8E0D0"/><rect x="72" y="24" width="8" height="8" fill="#C8B898"/><rect x="80" y="24" width="8" height="8" fill="#E8E0D0"/><rect x="88" y="24" width="8" height="8" fill="#A89878"/><rect x="96" y="24" width="8" height="8" fill="#C8B898"/><rect x="104" y="24" width="8" height="8" fill="#E8E0D0"/><rect x="112" y="24" width="8" height="8" fill="#E8E0D0"/><rect x="120" y="24" width="8" height="8" fill="#E8E0D0"/><rect x="128" y="24" width="8" height="8" fill="#E8E0D0"/><rect x="136" y="24" width="8" height="8" fill="#E8E0D0"/><rect x="144" y="24" width="8" height="8" fill="#E8E0D0"/><rect x="152" y="24" width="8" height="8" fill="#C8B898"/><rect x="160" y="24" width="8" height="8" fill="#A89878"/><rect x="168" y="24" width="8" height="8" fill="#E8E0D0"/><rect x="176" y="24" width="8" height="8" fill="#C8B898"/><rect x="184" y="24" width="8" height="8" fill="#E8E0D0"/><rect x="192" y="24" width="8" height="8" fill="#C8B898"/><rect x="48" y="32" width="8" height="8" fill="#C8B898"/><rect x="56" y="32" width="8" height="8" fill="#E8E0D0"/><rect x="64" y="32" width="8" height="8" fill="#A89878"/><rect x="72" y="32" width="8" height="8" fill="#E8E0D0"/><rect x="80" y="32" width="8" height="8" fill="#C8B898"/><rect x="88" y="32" width="8" height="8" fill="#E8E0D0"/><rect x="96" y="32" width="8" height="8" fill="#E8E0D0"/><rect x="104" y="32" width="8" height="8" fill="#A89878"/><rect x="112" y="32" width="8" height="8" fill="#C8B898"/><rect x="120" y="32" width="8" height="8" fill="#E8E0D0"/><rect x="128" y="32" width="8" height="8" fill="#E8E0D0"/><rect x="136" y="32" width="8" height="8" fill="#C8B898"/><rect x="144" y="32" width="8" height="8" fill="#A89878"/><rect x="152" y="32" width="8" height="8" fill="#E8E0D0"/><rect x="160" y="32" width="8" height="8" fill="#E8E0D0"/><rect x="168" y="32" width="8" height="8" fill="#C8B898"/><rect x="176" y="32" width="8" height="8" fill="#E8E0D0"/><rect x="184" y="32" width="8" height="8" fill="#A89878"/><rect x="192" y="32" width="8" height="8" fill="#E8E0D0"/><rect x="200" y="32" width="8" height="8" fill="#C8B898"/><rect x="40" y="40" width="8" height="8" fill="#C8B898"/><rect x="48" y="40" width="8" height="8" fill="#E8E0D0"/><rect x="56" y="40" width="8" height="8" fill="#C8B898"/><rect x="64" y="40" width="8" height="8" fill="#E8E0D0"/><rect x="72" y="40" width="8" height="8" fill="#A89878"/><rect x="80" y="40" width="8" height="8" fill="#E8E0D0"/><rect x="88" y="40" width="8" height="8" fill="#C8B898"/><rect x="96" y="40" width="8" height="8" fill="#A89878"/><rect x="104" y="40" width="8" height="8" fill="#E8E0D0"/><rect x="112" y="40" width="8" height="8" fill="#E8E0D0"/><rect x="120" y="40" width="8" height="8" fill="#C8B898"/><rect x="128" y="40" width="8" height="8" fill="#C8B898"/><rect x="136" y="40" width="8" height="8" fill="#E8E0D0"/><rect x="144" y="40" width="8" height="8" fill="#E8E0D0"/><rect x="152" y="40" width="8" height="8" fill="#A89878"/><rect x="160" y="40" width="8" height="8" fill="#C8B898"/><rect x="168" y="40" width="8" height="8" fill="#E8E0D0"/><rect x="176" y="40" width="8" height="8" fill="#A89878"/><rect x="184" y="40" width="8" height="8" fill="#E8E0D0"/><rect x="192" y="40" width="8" height="8" fill="#C8B898"/><rect x="200" y="40" width="8" height="8" fill="#E8E0D0"/><rect x="208" y="40" width="8" height="8" fill="#C8B898"/><rect x="32" y="48" width="8" height="8" fill="#C8B898"/><rect x="40" y="48" width="8" height="8" fill="#E8E0D0"/><rect x="48" y="48" width="8" height="8" fill="#A89878"/><rect x="56" y="48" width="8" height="8" fill="#E8E0D0"/><rect x="64" y="48" width="8" height="8" fill="#C8B898"/><rect x="72" y="48" width="8" height="8" fill="#E8E0D0"/><rect x="80" y="48" width="8" height="8" fill="#E8E0D0"/><rect x="88" y="48" width="8" height="8" fill="#A89878"/><rect x="96" y="48" width="8" height="8" fill="#E8E0D0"/><rect x="104" y="48" width="8" height="8" fill="#C8B898"/><rect x="112" y="48" width="8" height="8" fill="#E8E0D0"/><rect x="120" y="48" width="8" height="8" fill="#A89878"/><rect x="128" y="48" width="8" height="8" fill="#A89878"/><rect x="136" y="48" width="8" height="8" fill="#E8E0D0"/><rect x="144" y="48" width="8" height="8" fill="#C8B898"/><rect x="152" y="48" width="8" height="8" fill="#E8E0D0"/><rect x="160" y="48" width="8" height="8" fill="#A89878"/><rect x="168" y="48" width="8" height="8" fill="#E8E0D0"/><rect x="176" y="48" width="8" height="8" fill="#E8E0D0"/><rect x="184" y="48" width="8" height="8" fill="#C8B898"/><rect x="192" y="48" width="8" height="8" fill="#E8E0D0"/><rect x="200" y="48" width="8" height="8" fill="#A89878"/><rect x="208" y="48" width="8" height="8" fill="#E8E0D0"/><rect x="216" y="48" width="8" height="8" fill="#C8B898"/><rect x="32" y="56" width="8" height="8" fill="#C8B898"/><rect x="40" y="56" width="8" height="8" fill="#E8E0D0"/><rect x="48" y="56" width="8" height="8" fill="#E8E0D0"/><rect x="56" y="56" width="8" height="8" fill="#A89878"/><rect x="64" y="56" width="8" height="8" fill="#C8B898"/><rect x="72" y="56" width="8" height="8" fill="#E8E0D0"/><rect x="80" y="56" width="8" height="8" fill="#A89878"/><rect x="88" y="56" width="8" height="8" fill="#E8E0D0"/><rect x="96" y="56" width="8" height="8" fill="#C8B898"/><rect x="104" y="56" width="8" height="8" fill="#E8E0D0"/><rect x="112" y="56" width="8" height="8" fill="#E8E0D0"/><rect x="120" y="56" width="8" height="8" fill="#E8E0D0"/><rect x="128" y="56" width="8" height="8" fill="#E8E0D0"/><rect x="136" y="56" width="8" height="8" fill="#E8E0D0"/><rect x="144" y="56" width="8" height="8" fill="#E8E0D0"/><rect x="152" y="56" width="8" height="8" fill="#C8B898"/><rect x="160" y="56" width="8" height="8" fill="#E8E0D0"/><rect x="168" y="56" width="8" height="8" fill="#A89878"/><rect x="176" y="56" width="8" height="8" fill="#E8E0D0"/><rect x="184" y="56" width="8" height="8" fill="#C8B898"/><rect x="192" y="56" width="8" height="8" fill="#A89878"/><rect x="200" y="56" width="8" height="8" fill="#E8E0D0"/><rect x="208" y="56" width="8" height="8" fill="#E8E0D0"/><rect x="216" y="56" width="8" height="8" fill="#C8B898"/><rect x="32" y="64" width="8" height="8" fill="#A89878"/><rect x="40" y="64" width="8" height="8" fill="#C8B898"/><rect x="48" y="64" width="8" height="8" fill="#E8E0D0"/><rect x="56" y="64" width="8" height="8" fill="#E8E0D0"/><rect x="64" y="64" width="8" height="8" fill="#E8E0D0"/><rect x="72" y="64" width="8" height="8" fill="#C8B898"/><rect x="80" y="64" width="8" height="8" fill="#E8E0D0"/><rect x="88" y="64" width="8" height="8" fill="#C8B898"/><rect x="96" y="64" width="8" height="8" fill="#A89878"/><rect x="104" y="64" width="8" height="8" fill="#E8E0D0"/><rect x="112" y="64" width="8" height="8" fill="#C8B898"/><rect x="120" y="64" width="8" height="8" fill="#A89878"/><rect x="128" y="64" width="8" height="8" fill="#A89878"/><rect x="136" y="64" width="8" height="8" fill="#C8B898"/><rect x="144" y="64" width="8" height="8" fill="#E8E0D0"/><rect x="152" y="64" width="8" height="8" fill="#A89878"/><rect x="160" y="64" width="8" height="8" fill="#C8B898"/><rect x="168" y="64" width="8" height="8" fill="#E8E0D0"/><rect x="176" y="64" width="8" height="8" fill="#C8B898"/><rect x="184" y="64" width="8" height="8" fill="#E8E0D0"/><rect x="192" y="64" width="8" height="8" fill="#E8E0D0"/><rect x="200" y="64" width="8" height="8" fill="#E8E0D0"/><rect x="208" y="64" width="8" height="8" fill="#C8B898"/><rect x="216" y="64" width="8" height="8" fill="#A89878"/><rect x="40" y="72" width="8" height="8" fill="#A89878"/><rect x="48" y="72" width="8" height="8" fill="#C8B898"/><rect x="56" y="72" width="8" height="8" fill="#E8E0D0"/><rect x="64" y="72" width="8" height="8" fill="#E8E0D0"/><rect x="72" y="72" width="8" height="8" fill="#A89878"/><rect x="80" y="72" width="8" height="8" fill="#C8B898"/><rect x="88" y="72" width="8" height="8" fill="#A89878"/><rect x="96" y="72" width="8" height="8" fill="#E8E0D0"/><rect x="104" y="72" width="8" height="8" fill="#C8B898"/><rect x="112" y="72" width="8" height="8" fill="#A89878"/><rect x="120" y="72" width="8" height="8" fill="#2A2A2A"/><rect x="128" y="72" width="8" height="8" fill="#2A2A2A"/><rect x="136" y="72" width="8" height="8" fill="#A89878"/><rect x="144" y="72" width="8" height="8" fill="#C8B898"/><rect x="152" y="72" width="8" height="8" fill="#E8E0D0"/><rect x="160" y="72" width="8" height="8" fill="#A89878"/><rect x="168" y="72" width="8" height="8" fill="#C8B898"/><rect x="176" y="72" width="8" height="8" fill="#A89878"/><rect x="184" y="72" width="8" height="8" fill="#E8E0D0"/><rect x="192" y="72" width="8" height="8" fill="#E8E0D0"/><rect x="200" y="72" width="8" height="8" fill="#C8B898"/><rect x="208" y="72" width="8" height="8" fill="#A89878"/><rect x="48" y="80" width="8" height="8" fill="#A89878"/><rect x="56" y="80" width="8" height="8" fill="#C8B898"/><rect x="64" y="80" width="8" height="8" fill="#C8B898"/><rect x="72" y="80" width="8" height="8" fill="#A89878"/><rect x="80" y="80" width="8" height="8" fill="#A89878"/><rect x="88" y="80" width="8" height="8" fill="#2A2A2A"/><rect x="96" y="80" width="8" height="8" fill="#2A2A2A"/><rect x="104" y="80" width="8" height="8" fill="#2A2A2A"/><rect x="112" y="80" width="8" height="8" fill="#2A2A2A"/><rect x="120" y="80" width="8" height="8" fill="#2A2A2A"/><rect x="128" y="80" width="8" height="8" fill="#2A2A2A"/><rect x="136" y="80" width="8" height="8" fill="#2A2A2A"/><rect x="144" y="80" width="8" height="8" fill="#2A2A2A"/><rect x="152" y="80" width="8" height="8" fill="#2A2A2A"/><rect x="160" y="80" width="8" height="8" fill="#2A2A2A"/><rect x="168" y="80" width="8" height="8" fill="#A89878"/><rect x="176" y="80" width="8" height="8" fill="#A89878"/><rect x="184" y="80" width="8" height="8" fill="#C8B898"/><rect x="192" y="80" width="8" height="8" fill="#C8B898"/><rect x="200" y="80" width="8" height="8" fill="#A89878"/><rect x="56" y="88" width="8" height="8" fill="#A89878"/><rect x="64" y="88" width="8" height="8" fill="#2A2A2A"/><rect x="72" y="88" width="8" height="8" fill="#4A4A4A"/><rect x="80" y="88" width="8" height="8" fill="#4A4A4A"/><rect x="88" y="88" width="8" height="8" fill="#6A6A6A"/><rect x="96" y="88" width="8" height="8" fill="#4A4A4A"/><rect x="104" y="88" width="8" height="8" fill="#4A4A4A"/><rect x="112" y="88" width="8" height="8" fill="#4A4A4A"/><rect x="120" y="88" width="8" height="8" fill="#4A4A4A"/><rect x="128" y="88" width="8" height="8" fill="#4A4A4A"/><rect x="136" y="88" width="8" height="8" fill="#4A4A4A"/><rect x="144" y="88" width="8" height="8" fill="#4A4A4A"/><rect x="152" y="88" width="8" height="8" fill="#4A4A4A"/><rect x="160" y="88" width="8" height="8" fill="#6A6A6A"/><rect x="168" y="88" width="8" height="8" fill="#4A4A4A"/><rect x="176" y="88" width="8" height="8" fill="#4A4A4A"/><rect x="184" y="88" width="8" height="8" fill="#2A2A2A"/><rect x="192" y="88" width="8" height="8" fill="#A89878"/><rect x="64" y="96" width="8" height="8" fill="#2A2A2A"/><rect x="72" y="96" width="8" height="8" fill="#4A4A4A"/><rect x="80" y="96" width="8" height="8" fill="#6A6A6A"/><rect x="88" y="96" width="8" height="8" fill="#888888"/><rect x="96" y="96" width="8" height="8" fill="#6A6A6A"/><rect x="104" y="96" width="8" height="8" fill="#4A4A4A"/><rect x="112" y="96" width="8" height="8" fill="#4A4A4A"/><rect x="120" y="96" width="8" height="8" fill="#4A4A4A"/><rect x="128" y="96" width="8" height="8" fill="#4A4A4A"/><rect x="136" y="96" width="8" height="8" fill="#4A4A4A"/><rect x="144" y="96" width="8" height="8" fill="#4A4A4A"/><rect x="152" y="96" width="8" height="8" fill="#6A6A6A"/><rect x="160" y="96" width="8" height="8" fill="#888888"/><rect x="168" y="96" width="8" height="8" fill="#6A6A6A"/><rect x="176" y="96" width="8" height="8" fill="#4A4A4A"/><rect x="184" y="96" width="8" height="8" fill="#2A2A2A"/><rect x="64" y="104" width="8" height="8" fill="#2A2A2A"/><rect x="72" y="104" width="8" height="8" fill="#4A4A4A"/><rect x="80" y="104" width="8" height="8" fill="#6A6A6A"/><rect x="88" y="104" width="8" height="8" fill="#888888"/><rect x="96" y="104" width="8" height="8" fill="#6A6A6A"/><rect x="104" y="104" width="8" height="8" fill="#4A4A4A"/><rect x="112" y="104" width="8" height="8" fill="#2A2A2A"/><rect x="120" y="104" width="8" height="8" fill="#4A4A4A"/><rect x="128" y="104" width="8" height="8" fill="#4A4A4A"/><rect x="136" y="104" width="8" height="8" fill="#2A2A2A"/><rect x="144" y="104" width="8" height="8" fill="#4A4A4A"/><rect x="152" y="104" width="8" height="8" fill="#6A6A6A"/><rect x="160" y="104" width="8" height="8" fill="#888888"/><rect x="168" y="104" width="8" height="8" fill="#6A6A6A"/><rect x="176" y="104" width="8" height="8" fill="#4A4A4A"/><rect x="184" y="104" width="8" height="8" fill="#2A2A2A"/><rect x="64" y="112" width="8" height="8" fill="#2A2A2A"/><rect x="72" y="112" width="8" height="8" fill="#4A4A4A"/><rect x="80" y="112" width="8" height="8" fill="#FF0000"/><rect x="88" y="112" width="8" height="8" fill="#FF4444"/><rect x="96" y="112" width="8" height="8" fill="#FF0000"/><rect x="104" y="112" width="8" height="8" fill="#4A4A4A"/><rect x="112" y="112" width="8" height="8" fill="#2A2A2A"/><rect x="120" y="112" width="8" height="8" fill="#4A4A4A"/><rect x="128" y="112" width="8" height="8" fill="#4A4A4A"/><rect x="136" y="112" width="8" height="8" fill="#2A2A2A"/><rect x="144" y="112" width="8" height="8" fill="#4A4A4A"/><rect x="152" y="112" width="8" height="8" fill="#1A1A1A"/><rect x="160" y="112" width="8" height="8" fill="#2A2A2A"/><rect x="168" y="112" width="8" height="8" fill="#1A1A1A"/><rect x="176" y="112" width="8" height="8" fill="#4A4A4A"/><rect x="184" y="112" width="8" height="8" fill="#2A2A2A"/><rect x="64" y="120" width="8" height="8" fill="#2A2A2A"/><rect x="72" y="120" width="8" height="8" fill="#4A4A4A"/><rect x="80" y="120" width="8" height="8" fill="#FF4444"/><rect x="88" y="120" width="8" height="8" fill="#FF0000"/><rect x="96" y="120" width="8" height="8" fill="#FF4444"/><rect x="104" y="120" width="8" height="8" fill="#4A4A4A"/><rect x="112" y="120" width="8" height="8" fill="#2A2A2A"/><rect x="120" y="120" width="8" height="8" fill="#4A4A4A"/><rect x="128" y="120" width="8" height="8" fill="#4A4A4A"/><rect x="136" y="120" width="8" height="8" fill="#2A2A2A"/><rect x="144" y="120" width="8" height="8" fill="#4A4A4A"/><rect x="152" y="120" width="8" height="8" fill="#2A2A2A"/><rect x="160" y="120" width="8" height="8" fill="#1A1A1A"/><rect x="168" y="120" width="8" height="8" fill="#2A2A2A"/><rect x="176" y="120" width="8" height="8" fill="#4A4A4A"/><rect x="184" y="120" width="8" height="8" fill="#2A2A2A"/><rect x="64" y="128" width="8" height="8" fill="#2A2A2A"/><rect x="72" y="128" width="8" height="8" fill="#4A4A4A"/><rect x="80" y="128" width="8" height="8" fill="#FF0000"/><rect x="88" y="128" width="8" height="8" fill="#FF4444"/><rect x="96" y="128" width="8" height="8" fill="#FF0000"/><rect x="104" y="128" width="8" height="8" fill="#4A4A4A"/><rect x="112" y="128" width="8" height="8" fill="#2A2A2A"/><rect x="120" y="128" width="8" height="8" fill="#4A4A4A"/><rect x="128" y="128" width="8" height="8" fill="#4A4A4A"/><rect x="136" y="128" width="8" height="8" fill="#2A2A2A"/><rect x="144" y="128" width="8" height="8" fill="#4A4A4A"/><rect x="152" y="128" width="8" height="8" fill="#1A1A1A"/><rect x="160" y="128" width="8" height="8" fill="#2A2A2A"/><rect x="168" y="128" width="8" height="8" fill="#1A1A1A"/><rect x="176" y="128" width="8" height="8" fill="#4A4A4A"/><rect x="184" y="128" width="8" height="8" fill="#2A2A2A"/><rect x="64" y="136" width="8" height="8" fill="#2A2A2A"/><rect x="72" y="136" width="8" height="8" fill="#4A4A4A"/><rect x="80" y="136" width="8" height="8" fill="#6A6A6A"/><rect x="88" y="136" width="8" height="8" fill="#888888"/><rect x="96" y="136" width="8" height="8" fill="#6A6A6A"/><rect x="104" y="136" width="8" height="8" fill="#4A4A4A"/><rect x="112" y="136" width="8" height="8" fill="#4A4A4A"/><rect x="120" y="136" width="8" height="8" fill="#4A4A4A"/><rect x="128" y="136" width="8" height="8" fill="#4A4A4A"/><rect x="136" y="136" width="8" height="8" fill="#4A4A4A"/><rect x="144" y="136" width="8" height="8" fill="#4A4A4A"/><rect x="152" y="136" width="8" height="8" fill="#6A6A6A"/><rect x="160" y="136" width="8" height="8" fill="#888888"/><rect x="168" y="136" width="8" height="8" fill="#6A6A6A"/><rect x="176" y="136" width="8" height="8" fill="#4A4A4A"/><rect x="184" y="136" width="8" height="8" fill="#2A2A2A"/><rect x="64" y="144" width="8" height="8" fill="#2A2A2A"/><rect x="72" y="144" width="8" height="8" fill="#4A4A4A"/><rect x="80" y="144" width="8" height="8" fill="#4A4A4A"/><rect x="88" y="144" width="8" height="8" fill="#6A6A6A"/><rect x="96" y="144" width="8" height="8" fill="#4A4A4A"/><rect x="104" y="144" width="8" height="8" fill="#4A4A4A"/><rect x="112" y="144" width="8" height="8" fill="#4A4A4A"/><rect x="120" y="144" width="8" height="8" fill="#2A2A2A"/><rect x="128" y="144" width="8" height="8" fill="#2A2A2A"/><rect x="136" y="144" width="8" height="8" fill="#4A4A4A"/><rect x="144" y="144" width="8" height="8" fill="#4A4A4A"/><rect x="152" y="144" width="8" height="8" fill="#4A4A4A"/><rect x="160" y="144" width="8" height="8" fill="#6A6A6A"/><rect x="168" y="144" width="8" height="8" fill="#4A4A4A"/><rect x="176" y="144" width="8" height="8" fill="#4A4A4A"/><rect x="184" y="144" width="8" height="8" fill="#2A2A2A"/><rect x="64" y="152" width="8" height="8" fill="#2A2A2A"/><rect x="72" y="152" width="8" height="8" fill="#4A4A4A"/><rect x="80" y="152" width="8" height="8" fill="#4A4A4A"/><rect x="88" y="152" width="8" height="8" fill="#4A4A4A"/><rect x="96" y="152" width="8" height="8" fill="#4A4A4A"/><rect x="104" y="152" width="8" height="8" fill="#4A4A4A"/><rect x="112" y="152" width="8" height="8" fill="#2A2A2A"/><rect x="120" y="152" width="8" height="8" fill="#4A4A4A"/><rect x="128" y="152" width="8" height="8" fill="#4A4A4A"/><rect x="136" y="152" width="8" height="8" fill="#2A2A2A"/><rect x="144" y="152" width="8" height="8" fill="#4A4A4A"/><rect x="152" y="152" width="8" height="8" fill="#4A4A4A"/><rect x="160" y="152" width="8" height="8" fill="#4A4A4A"/><rect x="168" y="152" width="8" height="8" fill="#4A4A4A"/><rect x="176" y="152" width="8" height="8" fill="#4A4A4A"/><rect x="184" y="152" width="8" height="8" fill="#2A2A2A"/><rect x="64" y="160" width="8" height="8" fill="#2A2A2A"/><rect x="72" y="160" width="8" height="8" fill="#4A4A4A"/><rect x="80" y="160" width="8" height="8" fill="#4A4A4A"/><rect x="88" y="160" width="8" height="8" fill="#4A4A4A"/><rect x="96" y="160" width="8" height="8" fill="#4A4A4A"/><rect x="104" y="160" width="8" height="8" fill="#4A4A4A"/><rect x="112" y="160" width="8" height="8" fill="#2A2A2A"/><rect x="120" y="160" width="8" height="8" fill="#2A2A2A"/><rect x="128" y="160" width="8" height="8" fill="#2A2A2A"/><rect x="136" y="160" width="8" height="8" fill="#2A2A2A"/><rect x="144" y="160" width="8" height="8" fill="#4A4A4A"/><rect x="152" y="160" width="8" height="8" fill="#4A4A4A"/><rect x="160" y="160" width="8" height="8" fill="#4A4A4A"/><rect x="168" y="160" width="8" height="8" fill="#4A4A4A"/><rect x="176" y="160" width="8" height="8" fill="#4A4A4A"/><rect x="184" y="160" width="8" height="8" fill="#2A2A2A"/><rect x="64" y="168" width="8" height="8" fill="#2A2A2A"/><rect x="72" y="168" width="8" height="8" fill="#4A4A4A"/><rect x="80" y="168" width="8" height="8" fill="#4A4A4A"/><rect x="88" y="168" width="8" height="8" fill="#4A4A4A"/><rect x="96" y="168" width="8" height="8" fill="#4A4A4A"/><rect x="104" y="168" width="8" height="8" fill="#2A2A2A"/><rect x="112" y="168" width="8" height="8" fill="#1A1A1A"/><rect x="120" y="168" width="8" height="8" fill="#1A1A1A"/><rect x="128" y="168" width="8" height="8" fill="#1A1A1A"/><rect x="136" y="168" width="8" height="8" fill="#1A1A1A"/><rect x="144" y="168" width="8" height="8" fill="#2A2A2A"/><rect x="152" y="168" width="8" height="8" fill="#4A4A4A"/><rect x="160" y="168" width="8" height="8" fill="#4A4A4A"/><rect x="168" y="168" width="8" height="8" fill="#4A4A4A"/><rect x="176" y="168" width="8" height="8" fill="#4A4A4A"/><rect x="184" y="168" width="8" height="8" fill="#2A2A2A"/><rect x="64" y="176" width="8" height="8" fill="#2A2A2A"/><rect x="72" y="176" width="8" height="8" fill="#3A3A3A"/><rect x="80" y="176" width="8" height="8" fill="#4A4A4A"/><rect x="88" y="176" width="8" height="8" fill="#4A4A4A"/><rect x="96" y="176" width="8" height="8" fill="#2A2A2A"/><rect x="104" y="176" width="8" height="8" fill="#1A1A1A"/><rect x="112" y="176" width="8" height="8" fill="#2A2A2A"/><rect x="120" y="176" width="8" height="8" fill="#2A2A2A"/><rect x="128" y="176" width="8" height="8" fill="#2A2A2A"/><rect x="136" y="176" width="8" height="8" fill="#2A2A2A"/><rect x="144" y="176" width="8" height="8" fill="#1A1A1A"/><rect x="152" y="176" width="8" height="8" fill="#2A2A2A"/><rect x="160" y="176" width="8" height="8" fill="#4A4A4A"/><rect x="168" y="176" width="8" height="8" fill="#4A4A4A"/><rect x="176" y="176" width="8" height="8" fill="#3A3A3A"/><rect x="184" y="176" width="8" height="8" fill="#2A2A2A"/><rect x="64" y="184" width="8" height="8" fill="#2A2A2A"/><rect x="72" y="184" width="8" height="8" fill="#3A3A3A"/><rect x="80" y="184" width="8" height="8" fill="#3A3A3A"/><rect x="88" y="184" width="8" height="8" fill="#4A4A4A"/><rect x="96" y="184" width="8" height="8" fill="#4A4A4A"/><rect x="104" y="184" width="8" height="8" fill="#2A2A2A"/><rect x="112" y="184" width="8" height="8" fill="#2A2A2A"/><rect x="120" y="184" width="8" height="8" fill="#2A2A2A"/><rect x="128" y="184" width="8" height="8" fill="#2A2A2A"/><rect x="136" y="184" width="8" height="8" fill="#2A2A2A"/><rect x="144" y="184" width="8" height="8" fill="#2A2A2A"/><rect x="152" y="184" width="8" height="8" fill="#4A4A4A"/><rect x="160" y="184" width="8" height="8" fill="#4A4A4A"/><rect x="168" y="184" width="8" height="8" fill="#3A3A3A"/><rect x="176" y="184" width="8" height="8" fill="#3A3A3A"/><rect x="184" y="184" width="8" height="8" fill="#2A2A2A"/><rect x="72" y="192" width="8" height="8" fill="#2A2A2A"/><rect x="80" y="192" width="8" height="8" fill="#3A3A3A"/><rect x="88" y="192" width="8" height="8" fill="#3A3A3A"/><rect x="96" y="192" width="8" height="8" fill="#4A4A4A"/><rect x="104" y="192" width="8" height="8" fill="#4A4A4A"/><rect x="112" y="192" width="8" height="8" fill="#4A4A4A"/><rect x="120" y="192" width="8" height="8" fill="#4A4A4A"/><rect x="128" y="192" width="8" height="8" fill="#4A4A4A"/><rect x="136" y="192" width="8" height="8" fill="#4A4A4A"/><rect x="144" y="192" width="8" height="8" fill="#4A4A4A"/><rect x="152" y="192" width="8" height="8" fill="#4A4A4A"/><rect x="160" y="192" width="8" height="8" fill="#3A3A3A"/><rect x="168" y="192" width="8" height="8" fill="#3A3A3A"/><rect x="176" y="192" width="8" height="8" fill="#2A2A2A"/><rect x="80" y="200" width="8" height="8" fill="#2A2A2A"/><rect x="88" y="200" width="8" height="8" fill="#3A3A3A"/><rect x="96" y="200" width="8" height="8" fill="#3A3A3A"/><rect x="104" y="200" width="8" height="8" fill="#4A4A4A"/><rect x="112" y="200" width="8" height="8" fill="#4A4A4A"/><rect x="120" y="200" width="8" height="8" fill="#4A4A4A"/><rect x="128" y="200" width="8" height="8" fill="#4A4A4A"/><rect x="136" y="200" width="8" height="8" fill="#4A4A4A"/><rect x="144" y="200" width="8" height="8" fill="#4A4A4A"/><rect x="152" y="200" width="8" height="8" fill="#3A3A3A"/><rect x="160" y="200" width="8" height="8" fill="#3A3A3A"/><rect x="168" y="200" width="8" height="8" fill="#2A2A2A"/><rect x="88" y="208" width="8" height="8" fill="#2A2A2A"/><rect x="96" y="208" width="8" height="8" fill="#3A3A3A"/><rect x="104" y="208" width="8" height="8" fill="#3A3A3A"/><rect x="112" y="208" width="8" height="8" fill="#3A3A3A"/><rect x="120" y="208" width="8" height="8" fill="#4A4A4A"/><rect x="128" y="208" width="8" height="8" fill="#4A4A4A"/><rect x="136" y="208" width="8" height="8" fill="#3A3A3A"/><rect x="144" y="208" width="8" height="8" fill="#3A3A3A"/><rect x="152" y="208" width="8" height="8" fill="#3A3A3A"/><rect x="160" y="208" width="8" height="8" fill="#2A2A2A"/><rect x="96" y="216" width="8" height="8" fill="#2A2A2A"/><rect x="104" y="216" width="8" height="8" fill="#2A2A2A"/><rect x="112" y="216" width="8" height="8" fill="#3A3A3A"/><rect x="120" y="216" width="8" height="8" fill="#3A3A3A"/><rect x="128" y="216" width="8" height="8" fill="#3A3A3A"/><rect x="136" y="216" width="8" height="8" fill="#3A3A3A"/><rect x="144" y="216" width="8" height="8" fill="#2A2A2A"/><rect x="152" y="216" width="8" height="8" fill="#2A2A2A"/><rect x="104" y="224" width="8" height="8" fill="#2A2A2A"/><rect x="112" y="224" width="8" height="8" fill="#2A2A2A"/><rect x="120" y="224" width="8" height="8" fill="#4A4A4A"/><rect x="128" y="224" width="8" height="8" fill="#4A4A4A"/><rect x="136" y="224" width="8" height="8" fill="#2A2A2A"/><rect x="144" y="224" width="8" height="8" fill="#2A2A2A"/><rect x="112" y="232" width="8" height="8" fill="#2A2A2A"/><rect x="120" y="232" width="8" height="8" fill="#4A4A4A"/><rect x="128" y="232" width="8" height="8" fill="#4A4A4A"/><rect x="136" y="232" width="8" height="8" fill="#2A2A2A"/><rect x="112" y="240" width="8" height="8" fill="#2A2A2A"/><rect x="120" y="240" width="8" height="8" fill="#4A4A4A"/><rect x="128" y="240" width="8" height="8" fill="#4A4A4A"/><rect x="136" y="240" width="8" height="8" fill="#2A2A2A"/>
</svg>